Coordinates
version=1
nRows=5
nColumns=40
inDegrees=yes

Units are S.I. units (second, meters, Newtons, ...)
If the header above contains a line with 'inDegrees', this indicates whether rotational values are in degrees (yes) or radians (no).

endheader
time	pelvis_tilt	pelvis_list	pelvis_rotation	pelvis_tx	pelvis_ty	pelvis_tz	hip_flexion_r	hip_adduction_r	hip_rotation_r	knee_angle_r	knee_angle_r_beta	ankle_angle_r	subtalar_angle_r	mtp_angle_r	hip_flexion_l	hip_adduction_l	hip_rotation_l	knee_angle_l	knee_angle_l_beta	ankle_angle_l	subtalar_angle_l	mtp_angle_l	lumbar_extension	lumbar_bending	lumbar_rotation	arm_flex_r	arm_add_r	arm_rot_r	elbow_flex_r	pro_sup_r	wrist_flex_r	wrist_dev_r	arm_flex_l	arm_add_l	arm_rot_l	elbow_flex_l	pro_sup_l	wrist_flex_l	wrist_dev_l
      0.00500000	     -2.58130946	      8.76196322	      6.49816698	     -0.53572077	      0.90164521	      0.21689082	     30.78989063	    -13.94698893	    -18.71868343	      9.27015011	      0.16179464	      2.70596730	      8.36787953	      0.00000000	    -18.79576511	      6.21842549	    -14.92803742	      9.57874094	      0.16718057	      3.41703031	     17.87498662	      0.00000000	     -1.16118454	     -7.38522951	      1.38528338	     43.97410906	    -16.72730957	     43.97410906	     75.15343676	     44.94705512	      0.00000000	      0.00000000	     43.97410906	    -16.72730957	     43.97410906	     75.15343676	     44.94705512	      0.00000000	      0.00000000
      0.01000000	     -2.44142339	      8.61190030	      6.60275929	     -0.53064858	      0.90151499	      0.21687346	     30.53027375	    -13.81940004	    -18.69773171	      9.60809095	      0.16769282	      2.53123230	      7.87928413	      0.00000000	    -19.08280441	      5.90224965	    -14.86836361	      9.86054674	      0.17209901	      3.00930392	     17.72612745	      0.00000000	     -1.26265620	     -7.16983244	      1.11161604	     43.97504791	    -16.72469669	     43.97504791	     75.15298286	     44.94748947	      0.00000000	      0.00000000	     43.97504791	    -16.72469669	     43.97504791	     75.15298286	     44.94748947	      0.00000000	      0.00000000
      0.01500000	     -2.30192858	      8.44458591	      6.67887739	     -0.52492328	      0.90136356	      0.21695512	     30.26393934	    -13.65961324	    -18.64383653	      9.98401768	      0.17425398	      2.30566752	      7.41575836	      0.00000000	    -19.38309635	      5.56520846	    -14.82899888	     10.16700326	      0.17744768	      2.49390657	     17.54822319	      0.00000000	     -1.34387486	     -6.92081657	      0.88886913	     43.97557463	    -16.72323156	     43.97557463	     75.15272865	     44.94773169	      0.00000000	      0.00000000	     43.97557463	    -16.72323156	     43.97557463	     75.15272865	     44.94773169	      0.00000000	      0.00000000
      0.02000000	     -1.75368217	      7.74704357	      7.03953792	     -0.51868359	      0.90218069	      0.21627385	     29.10776374	    -12.98439850	    -18.96905379	      9.70031520	      0.16930244	      1.56088855	      6.54215903	      0.00000000	    -20.04681314	      4.52731680	    -14.64820755	     10.54714752	      0.18408245	      2.10906355	     17.35775183	      0.00000000	     -1.90540808	     -6.10837412	     -0.18309961	     43.97944990	    -16.71246506	     43.97944990	     75.15086622	     44.94948653	      0.00000000	      0.00000000	     43.97944990	    -16.71246506	     43.97944990	     75.15086622	     44.94948653	      0.00000000	      0.00000000
      0.02500000	     -1.42113134	      7.34842401	      7.19271192	     -0.51190462	      0.90241442	      0.21615216	     28.50027303	    -12.58556299	    -19.10113998	      9.96522368	      0.17392596	      1.09567603	      5.92505787	      0.00000000	    -20.50614380	      3.86235514	    -14.66136111	     10.98746438	      0.19176743	      1.53362985	     17.19244465	      0.00000000	     -2.18801981	     -5.60395697	     -0.73598363	     43.98386178	    -16.70024434	     43.98386178	     75.14876751	     44.95141264	      0.00000000	      0.00000000	     43.98386178	    -16.70024434	     43.98386178	     75.14876751	     44.95141264	      0.00000000	      0.00000000
